<mxfile host="app.diagrams.net" modified="2024-02-29T02:30:04.779Z" agent="Mozilla/5.0 (Windows NT 10.0; Win64; x64) AppleWebKit/537.36 (KHTML, like Gecko) Chrome/122.0.0.0 Safari/537.36" etag="o-jvq87xUexeIvk4we_C" version="23.1.5" type="github">
  <diagram name="第 1 页" id="rrZ7hrOaui3AsJbaLMUq">
    <mxGraphModel dx="1434" dy="830" grid="1" gridSize="10" guides="1" tooltips="1" connect="1" arrows="1" fold="1" page="1" pageScale="1" pageWidth="827" pageHeight="1169" math="0" shadow="0">
      <root>
        <mxCell id="0" />
        <mxCell id="1" parent="0" />
        <mxCell id="d498bgmHW4dofSmXcOC3-10" style="edgeStyle=orthogonalEdgeStyle;rounded=0;orthogonalLoop=1;jettySize=auto;html=1;entryX=0.5;entryY=0;entryDx=0;entryDy=0;exitX=0.5;exitY=1;exitDx=0;exitDy=0;" edge="1" parent="1" source="d498bgmHW4dofSmXcOC3-3" target="d498bgmHW4dofSmXcOC3-6">
          <mxGeometry relative="1" as="geometry" />
        </mxCell>
        <mxCell id="d498bgmHW4dofSmXcOC3-11" style="edgeStyle=orthogonalEdgeStyle;rounded=0;orthogonalLoop=1;jettySize=auto;html=1;entryX=0.5;entryY=0;entryDx=0;entryDy=0;" edge="1" parent="1" source="d498bgmHW4dofSmXcOC3-3" target="d498bgmHW4dofSmXcOC3-7">
          <mxGeometry relative="1" as="geometry" />
        </mxCell>
        <mxCell id="d498bgmHW4dofSmXcOC3-3" value="&lt;span style=&quot;border-color: var(--border-color); font-family: 宋体; font-size: 16px; text-indent: 40.1333px;&quot;&gt;无人机辅助下&lt;/span&gt;&lt;span style=&quot;border-color: var(--border-color); font-size: 16px; text-indent: 40.1333px;&quot;&gt;&lt;font face=&quot;Times New Roman&quot;&gt;NOMA&lt;/font&gt;&lt;span style=&quot;font-family: 宋体; border-color: var(--border-color); line-height: 20px;&quot;&gt;使能的&lt;/span&gt;&lt;span style=&quot;border-color: var(--border-color); line-height: 20px;&quot; lang=&quot;EN-US&quot;&gt;&lt;font face=&quot;Times New Roman&quot;&gt;IoT&lt;/font&gt;&lt;/span&gt;&lt;span style=&quot;font-family: 宋体; border-color: var(--border-color); line-height: 20px;&quot;&gt;数据采集系统中资源优化问题&lt;/span&gt;&lt;/span&gt;" style="rounded=1;whiteSpace=wrap;html=1;align=center;" vertex="1" parent="1">
          <mxGeometry x="210" y="170" width="490" height="40" as="geometry" />
        </mxCell>
        <mxCell id="d498bgmHW4dofSmXcOC3-5" value="&lt;font face=&quot;宋体&quot;&gt;研究问题&lt;/font&gt;" style="rounded=1;whiteSpace=wrap;html=1;fillColor=#A9C4EB;" vertex="1" parent="1">
          <mxGeometry x="80" y="175" width="100" height="30" as="geometry" />
        </mxCell>
        <mxCell id="d498bgmHW4dofSmXcOC3-6" value="&lt;font style=&quot;font-size: 15px;&quot;&gt;&lt;font style=&quot;font-size: 15px;&quot; face=&quot;宋体&quot;&gt;对于无人机辅助传统蜂窝基站的场景，提出了利用群智能优化算法、深度学习理论、凸优化理论等方法解决&lt;/font&gt;&lt;span style=&quot;line-height: 125%;&quot; lang=&quot;EN-US&quot;&gt;&lt;font style=&quot;font-size: 15px;&quot; face=&quot;Times New Roman&quot;&gt;UAV&lt;/font&gt;&lt;/span&gt;&lt;span style=&quot;font-family: 宋体; line-height: 125%;&quot;&gt;三维布局设计、功率控制的多维度优化问题。&lt;/span&gt;&lt;/font&gt;" style="rounded=0;whiteSpace=wrap;html=1;" vertex="1" parent="1">
          <mxGeometry x="210" y="300" width="230" height="110" as="geometry" />
        </mxCell>
        <mxCell id="d498bgmHW4dofSmXcOC3-7" value="&lt;font style=&quot;font-size: 16px;&quot;&gt;&lt;font style=&quot;font-size: 16px;&quot; face=&quot;宋体&quot;&gt;对于多&lt;/font&gt;&lt;span style=&quot;line-height: 125%; font-family: &amp;quot;Times New Roman&amp;quot;, serif;&quot; lang=&quot;EN-US&quot;&gt;UAV&lt;/span&gt;&lt;span style=&quot;line-height: 125%; font-family: 宋体;&quot;&gt;辅助下&lt;/span&gt;&lt;span style=&quot;line-height: 125%;&quot;&gt;&lt;font style=&quot;font-size: 16px;&quot; face=&quot;Times New Roman&quot;&gt;NOMA&lt;/font&gt;&lt;/span&gt;&lt;span style=&quot;line-height: 125%; font-family: 宋体;&quot;&gt;赋能的&lt;/span&gt;&lt;span style=&quot;line-height: 125%; font-family: &amp;quot;Times New Roman&amp;quot;, serif;&quot; lang=&quot;EN-US&quot;&gt;IoT&lt;/span&gt;&lt;span style=&quot;line-height: 125%; font-family: 宋体;&quot;&gt;数据采集系统，设计了该上行数据采集系统的资源优化机制。&lt;/span&gt;&lt;/font&gt;" style="rounded=0;whiteSpace=wrap;html=1;" vertex="1" parent="1">
          <mxGeometry x="470" y="300" width="230" height="110" as="geometry" />
        </mxCell>
        <mxCell id="d498bgmHW4dofSmXcOC3-12" style="edgeStyle=orthogonalEdgeStyle;rounded=0;orthogonalLoop=1;jettySize=auto;html=1;entryX=0.5;entryY=1;entryDx=0;entryDy=0;" edge="1" parent="1" source="d498bgmHW4dofSmXcOC3-8" target="d498bgmHW4dofSmXcOC3-6">
          <mxGeometry relative="1" as="geometry" />
        </mxCell>
        <mxCell id="d498bgmHW4dofSmXcOC3-8" value="&lt;font style=&quot;font-size: 15px;&quot; face=&quot;宋体&quot;&gt;系统总能量效率&lt;/font&gt;" style="rounded=1;whiteSpace=wrap;html=1;" vertex="1" parent="1">
          <mxGeometry x="265" y="450" width="120" height="40" as="geometry" />
        </mxCell>
        <mxCell id="d498bgmHW4dofSmXcOC3-13" style="edgeStyle=orthogonalEdgeStyle;rounded=0;orthogonalLoop=1;jettySize=auto;html=1;exitX=0.5;exitY=0;exitDx=0;exitDy=0;entryX=0.5;entryY=1;entryDx=0;entryDy=0;" edge="1" parent="1" source="d498bgmHW4dofSmXcOC3-9" target="d498bgmHW4dofSmXcOC3-7">
          <mxGeometry relative="1" as="geometry" />
        </mxCell>
        <mxCell id="d498bgmHW4dofSmXcOC3-9" value="&lt;font style=&quot;font-size: 15px;&quot; face=&quot;宋体&quot;&gt;比例公平和速率&lt;/font&gt;" style="rounded=1;whiteSpace=wrap;html=1;" vertex="1" parent="1">
          <mxGeometry x="525" y="450" width="120" height="40" as="geometry" />
        </mxCell>
        <mxCell id="d498bgmHW4dofSmXcOC3-14" value="&lt;font face=&quot;宋体&quot;&gt;研究内容&lt;/font&gt;" style="rounded=1;whiteSpace=wrap;html=1;fillColor=#A9C4EB;" vertex="1" parent="1">
          <mxGeometry x="80" y="330" width="100" height="30" as="geometry" />
        </mxCell>
        <mxCell id="d498bgmHW4dofSmXcOC3-15" value="&lt;font face=&quot;宋体&quot;&gt;性能指标&lt;/font&gt;" style="rounded=1;whiteSpace=wrap;html=1;fillColor=#A9C4EB;" vertex="1" parent="1">
          <mxGeometry x="80" y="455" width="100" height="30" as="geometry" />
        </mxCell>
      </root>
    </mxGraphModel>
  </diagram>
</mxfile>
